<svg xmlns="http://www.w3.org/2000/svg" version="1.0" width="48.000000pt" height="48.000000pt" viewBox="0 0 48.000000 48.000000" preserveAspectRatio="xMidYMid meet">

<g transform="translate(0.000000,48.000000) scale(0.100000,-0.100000)" fill="currentcolor" stroke="none">
<path d="M72 408 c-20 -20 -15 -86 7 -98 31 -16 117 -12 135 6 18 18 21 56 6 85 -9 16 -22 19 -73 19 -36 0 -68 -5 -75 -12z m128 -48 c0 -30 -1 -30 -55 -30 -54 0 -55 0 -55 30 0 30 1 30 55 30 54 0 55 0 55 -30z"/>
<path d="M260 406 c-13 -17 -10 -61 5 -61 6 0 11 10 13 23 3 20 9 22 58 22 l54 0 0 -50 c0 -38 4 -50 15 -50 11 0 15 12 15 46 0 74 -10 84 -84 84 -43 0 -67 -5 -76 -14z"/>
<path d="M250 270 c0 -38 4 -52 19 -60 31 -16 117 -12 135 6 20 20 21 44 1 44 -8 0 -15 -7 -15 -15 0 -12 -13 -15 -55 -15 l-55 0 0 45 c0 33 -4 45 -15 45 -11 0 -15 -12 -15 -50z"/>
<path d="M72 268 c-17 -17 -15 -58 3 -58 8 0 15 9 15 20 0 18 7 20 55 20 l55 0 0 -55 c0 -42 3 -55 15 -55 11 0 15 12 15 51 0 79 -10 89 -83 89 -36 0 -68 -5 -75 -12z"/>
<path d="M60 135 c0 -43 4 -56 19 -65 31 -16 117 -12 135 6 20 20 21 44 1 44 -8 0 -15 -7 -15 -15 0 -12 -13 -15 -55 -15 l-55 0 0 50 c0 38 -4 50 -15 50 -12 0 -15 -13 -15 -55z"/>
<path d="M262 168 c-20 -20 -15 -86 7 -98 31 -16 117 -12 135 6 18 18 21 56 6 85 -9 16 -22 19 -73 19 -36 0 -68 -5 -75 -12z m128 -48 c0 -30 -1 -30 -55 -30 -54 0 -55 0 -55 30 0 30 1 30 55 30 54 0 55 0 55 -30z"/>
</g>
</svg>