<svg xmlns="http://www.w3.org/2000/svg" version="1.0" width="48.000000pt" height="48.000000pt" viewBox="0 0 48.000000 48.000000" preserveAspectRatio="xMidYMid meet">

<g transform="translate(0.000000,48.000000) scale(0.100000,-0.100000)" fill="currentcolor" stroke="none">
<path d="M78 444 c0 -5 -1 -16 -2 -24 -1 -8 -11 -16 -23 -18 -27 -4 -29 -14 -7 -33 14 -12 14 -14 -1 -25 -19 -14 -11 -38 10 -30 23 8 25 -6 5 -34 -16 -23 -20 -45 -20 -118 0 -97 9 -116 52 -110 30 4 30 22 1 26 -51 7 -7 101 87 186 22 20 40 40 40 46 0 24 -31 5 -88 -54 -58 -61 -62 -63 -62 -37 0 52 92 112 193 125 l49 6 -46 -51 c-53 -59 -110 -154 -101 -169 11 -18 21 -11 39 28 44 92 135 182 184 182 16 0 21 -7 24 -32 4 -42 22 -38 26 5 2 21 -3 38 -12 46 -18 15 -149 20 -211 8 -36 -7 -38 -6 -21 7 20 17 13 38 -12 34 -11 -2 -18 5 -20 20 -4 26 -14 28 -32 7 -12 -14 -15 -14 -31 1 -11 10 -20 13 -21 8z m70 -81 c3 -22 -28 -40 -48 -28 -12 7 -13 38 -3 49 15 14 48 1 51 -21z"/>
<path d="M335 243 c-4 -10 -18 -49 -30 -88 l-23 -70 -66 -3 c-50 -2 -66 -7 -66 -17 0 -21 262 -22 279 -1 14 17 11 161 -4 161 -5 0 -11 -33 -13 -72 l-3 -73 -49 0 -48 0 18 57 c10 32 22 70 28 84 15 37 -8 58 -23 22z"/>
</g>
</svg>