<svg xmlns="http://www.w3.org/2000/svg" version="1.0" width="48.000000pt" height="48.000000pt" viewBox="0 0 48.000000 48.000000" preserveAspectRatio="xMidYMid meet">

<g transform="translate(0.000000,48.000000) scale(0.100000,-0.100000)" fill="currentcolor" stroke="none">
<path d="M162 418 c-7 -7 -12 -20 -12 -30 0 -15 -8 -18 -44 -18 -50 0 -69 -16 -64 -55 4 -33 22 -33 26 0 l3 25 170 0 169 0 0 -55 c0 -42 3 -55 15 -55 12 0 15 13 15 58 0 32 -5 63 -12 70 -7 7 -31 12 -55 12 -35 0 -43 3 -43 18 0 32 -22 42 -90 42 -38 0 -71 -5 -78 -12z m138 -33 c0 -12 -13 -15 -60 -15 -47 0 -60 3 -60 15 0 12 13 15 60 15 47 0 60 -3 60 -15z"/>
<path d="M40 166 c0 -59 4 -87 14 -95 17 -15 186 -11 186 4 0 6 -37 11 -85 13 l-85 3 0 79 c0 64 -3 80 -15 80 -12 0 -15 -16 -15 -84z"/>
<path d="M345 216 c-11 -7 -24 -14 -30 -14 -5 0 -11 -5 -13 -11 -6 -17 26 -25 42 -11 11 8 20 8 34 1 11 -6 22 -8 25 -5 3 3 8 -4 12 -15 3 -12 11 -21 16 -21 14 0 -1 -52 -21 -72 -39 -37 -100 -18 -114 35 -3 15 -13 27 -22 27 -12 0 -14 -8 -8 -37 4 -21 11 -40 16 -42 5 -1 17 -11 26 -21 25 -27 90 -22 123 10 29 28 48 103 29 115 -6 4 -15 18 -20 31 -6 16 -17 24 -33 24 -13 0 -27 4 -33 10 -6 6 -16 5 -29 -4z"/>
<path d="M210 210 c0 -6 -27 -10 -61 -10 -76 0 -79 -24 -3 -28 27 -1 59 -7 71 -14 32 -16 53 -4 53 32 0 27 -3 30 -30 30 -16 0 -30 -4 -30 -10z"/>
</g>
</svg>