<svg xmlns="http://www.w3.org/2000/svg" version="1.0" width="48.000000pt" height="48.000000pt" viewBox="0 0 48.000000 48.000000" preserveAspectRatio="xMidYMid meet">

<g transform="translate(0.000000,48.000000) scale(0.100000,-0.100000)" fill="currentcolor" stroke="none">
<path d="M263 391 c-29 -19 -51 -56 -39 -68 3 -3 17 9 31 26 34 40 55 40 55 1 0 -38 48 -94 92 -106 l33 -10 -22 -19 c-26 -22 -29 -35 -9 -35 20 0 56 48 49 66 -3 8 -12 14 -20 14 -50 0 -103 61 -103 120 0 36 -19 39 -67 11z"/>
<path d="M175 303 c-36 -10 -64 -35 -75 -69 -7 -20 -10 -38 -7 -41 10 -9 27 8 27 27 0 26 47 60 82 60 33 0 78 -39 78 -68 0 -14 9 -21 30 -26 42 -8 60 -48 35 -76 -16 -18 -31 -20 -145 -20 -112 0 -129 2 -144 19 -12 13 -15 27 -10 46 5 21 4 27 -7 23 -20 -7 -23 -55 -4 -84 15 -24 18 -24 160 -24 132 0 147 2 165 20 11 11 20 33 20 48 0 30 -36 72 -61 72 -8 0 -20 13 -26 29 -16 43 -74 75 -118 64z"/>
</g>
</svg>